<?xml version="1.0" standalone="no"?>
<!DOCTYPE svg PUBLIC "-//W3C//DTD SVG 20010904//EN"
 "http://www.w3.org/TR/2001/REC-SVG-20010904/DTD/svg10.dtd">
<svg version="1.0" xmlns="http://www.w3.org/2000/svg"
 width="700.000000pt" height="700.000000pt" viewBox="0 0 700.000000 700.000000"
 preserveAspectRatio="xMidYMid meet">
<metadata>
Created by potrace 1.11, written by Peter Selinger 2001-2013
</metadata>
<g transform="translate(0.000000,700.000000) scale(0.100000,-0.100000)"
fill="#000000" stroke="none">
<path d="M3124 6990 c-558 -32 -1118 -137 -1619 -305 -446 -148 -583 -222
-776 -414 -162 -161 -240 -292 -348 -584 -509 -1372 -506 -3020 6 -4387 104
-279 175 -400 320 -551 140 -146 273 -235 461 -311 888 -360 1950 -506 2957
-408 621 61 1195 200 1733 418 276 113 522 343 660 617 16 33 59 139 95 235
515 1374 515 3026 0 4400 -109 293 -178 408 -342 571 -160 161 -278 232 -556
337 -794 299 -1700 432 -2591 382z m561 -1681 c334 -28 634 -131 896 -307 323
-218 555 -509 663 -834 73 -217 70 -159 73 -1385 l4 -1103 -211 0 -210 0 0
450 0 450 -1400 0 -1400 0 0 -450 0 -450 -210 0 -211 0 4 1103 c3 1226 0 1168
73 1386 88 266 258 507 499 709 392 329 887 478 1430 431z"/>
<path d="M3307 4880 c-344 -43 -622 -171 -854 -394 -177 -169 -270 -321 -325
-531 -20 -74 -22 -113 -25 -517 l-4 -438 1400 0 1401 0 0 383 c0 412 -7 504
-47 630 -132 419 -557 761 -1060 852 -103 19 -388 28 -486 15z"/>
</g>
</svg>
