
<svg xmlns="http://www.w3.org/2000/svg" width="31.03" height="31.0301" viewBox="0 0 8.21 8.2101">
  <path d="M4.0724.5281C2.1097.5461.5281 2.1422.5281 4.105c0 1.9754 1.6015 3.5769 3.5769 3.5769 1.9754 0 3.5769-1.6015 3.5769-3.5769 0-1.9754-1.6015-3.5769-3.5769-3.5769h-.0326z" fill="#fff"/>
  <path fill="currentColor" d="M4.0676 0A4.105 4.105 0 000 4.105 4.105 4.105 0 004.105 8.21 4.105 4.105 0 008.21 4.105 4.105 4.105 0 004.105 0a4.105 4.105 0 00-.0374 0zm2.1615 2.1018l.5045.505-2.996 2.9955-.504.5039-.002.002c-.1666-.1679-.3415-.338-.5024-.506L1.477 4.349l.5034-.504 1.2533 1.2528z"/>
</svg>