<?xml version="1.0" encoding="UTF-8" standalone="no"?>
<svg
   xmlns:dc="http://purl.org/dc/elements/1.1/"
   xmlns:cc="http://creativecommons.org/ns#"
   xmlns:rdf="http://www.w3.org/1999/02/22-rdf-syntax-ns#"
   xmlns:svg="http://www.w3.org/2000/svg"
   xmlns="http://www.w3.org/2000/svg"
   xmlns:sodipodi="http://sodipodi.sourceforge.net/DTD/sodipodi-0.dtd"
   xmlns:inkscape="http://www.inkscape.org/namespaces/inkscape"
   width="7.9375mm"
   height="7.9375mm"
   viewBox="0 0 7.9375 7.9375"
   version="1.1"
   id="svg8"
   inkscape:version="1.0.2 (394de47547, 2021-03-26)"
   sodipodi:docname="sort-icon-proto.svg">
  <defs
     id="defs2" />
  <sodipodi:namedview
     id="base"
     pagecolor="#ffffff"
     bordercolor="#666666"
     borderopacity="1.0"
     inkscape:pageopacity="0.0"
     inkscape:pageshadow="2"
     inkscape:zoom="9.1898553"
     inkscape:cx="12.876075"
     inkscape:cy="29.816254"
     inkscape:document-units="mm"
     inkscape:current-layer="layer1"
     inkscape:document-rotation="0"
     showgrid="false"
     inkscape:window-width="1920"
     inkscape:window-height="1016"
     inkscape:window-x="0"
     inkscape:window-y="27"
     inkscape:window-maximized="1"
     showguides="true"
     inkscape:guide-bbox="true" />
  <metadata
     id="metadata5">
    <rdf:RDF>
      <cc:Work
         rdf:about="">
        <dc:format>image/svg+xml</dc:format>
        <dc:type
           rdf:resource="http://purl.org/dc/dcmitype/StillImage" />
        <dc:title></dc:title>
      </cc:Work>
    </rdf:RDF>
  </metadata>
  <g
     inkscape:label="Layer 1"
     inkscape:groupmode="layer"
     id="layer1">
    <text
       xml:space="preserve"
       style="font-size:2.74904px;line-height:0.9;font-family:sans-serif;letter-spacing:0px;word-spacing:0px;stroke:#000000;stroke-width:0.0835711;stroke-miterlimit:4;stroke-dasharray:none"
       x="3.7877824"
       y="13.912073"
       id="text1792"
       transform="scale(1.0539371,0.94882322)"><tspan
         sodipodi:role="line"
         id="tspan1788"
         x="3.7877824"
         y="13.912073"
         style="font-style:normal;font-variant:normal;font-weight:normal;font-stretch:normal;font-size:2.74904px;font-family:sans-serif;-inkscape-font-specification:'sans-serif, Normal';font-variant-ligatures:normal;font-variant-caps:normal;font-variant-numeric:normal;font-variant-east-asian:normal;stroke:#000000;stroke-width:0.0835711;stroke-miterlimit:4;stroke-dasharray:none">A</tspan><tspan
         sodipodi:role="line"
         x="3.7877824"
         y="16.386209"
         style="font-style:normal;font-variant:normal;font-weight:normal;font-stretch:normal;font-size:2.74904px;font-family:sans-serif;-inkscape-font-specification:'sans-serif, Normal';font-variant-ligatures:normal;font-variant-caps:normal;font-variant-numeric:normal;font-variant-east-asian:normal;stroke:#000000;stroke-width:0.0835711;stroke-miterlimit:4;stroke-dasharray:none"
         id="tspan1790">Z</tspan></text>
    <path
       d="m -2.8323123,13.621286 c -0.12988,0 -0.232142,0.05524 -0.306785,0.165709 c -0.07315,0.110472 -0.109726,0.264238 -0.109726,0.461297 c 0,0.194073 0.03658,0.347093 0.109726,0.459058 c 0.07464,0.110472 0.176904,0.165709 0.306784,0.165709 c 0.126895,0 0.226917,-0.05524 0.300068,-0.165709 c 0.07464,-0.111965 0.111964,-0.264985 0.111964,-0.459058 c 0,-0.195566 -0.03732,-0.348585 -0.111964,-0.459058 c -0.07315,-0.111965 -0.173173,-0.167948 -0.300067,-0.167948 z m 0,-0.284392 c 0.235873,0 0.423229,0.08211 0.562066,0.246324 c 0.138837,0.164216 0.208255,0.385907 0.208255,0.665074 c 0,0.279167 -0.07016,0.500858 -0.210495,0.665074 c -0.138837,0.162723 -0.325445,0.244085 -0.559826,0.244085 c -0.238859,0 -0.427708,-0.08136 -0.566545,-0.244085 c -0.138837,-0.164216 -0.208255,-0.385907 -0.208255,-0.665074 c 0,-0.28066 0.06942,-0.502351 0.208254,-0.665074 c 0.140331,-0.164216 0.329179,-0.246324 0.566546,-0.246324 z m -2.111479,-1.363738 c -0.128388,0 -0.229903,0.05598 -0.304546,0.167948 c -0.07315,0.110473 -0.109726,0.262746 -0.109726,0.456819 c 0,0.197059 0.03657,0.350825 0.109726,0.461297 c 0.07315,0.110473 0.174667,0.165709 0.304546,0.165709 c 0.12988,0 0.231394,-0.05524 0.304545,-0.165709 c 0.07464,-0.110472 0.111965,-0.264238 0.111965,-0.461297 c 0,-0.19258 -0.03732,-0.344853 -0.111965,-0.456819 c -0.07464,-0.111965 -0.176158,-0.167948 -0.304545,-0.167948 z m 1.587321,-0.284392 h 0.358289 l -1.421156,3.468687 h -0.358289 z m -1.587321,0 c 0.235873,0 0.423975,0.08211 0.564304,0.246324 c 0.14033,0.162723 0.210495,0.383668 0.210495,0.662835 c 0,0.282153 -0.07017,0.50459 -0.210495,0.667313 c -0.138837,0.162723 -0.326938,0.244085 -0.564304,0.244085 c -0.237368,0 -0.425469,-0.08136 -0.564305,-0.244085 c -0.137345,-0.164215 -0.206017,-0.386653 -0.206017,-0.667313 c 0,-0.277674 0.06942,-0.498619 0.208255,-0.662835 c 0.138838,-0.164216 0.326193,-0.246324 0.562067,-0.246324 z"
       style="font-size:4.5861px;line-height:1.25;font-family:sans-serif;letter-spacing:0px;word-spacing:0px;opacity:0.0967737;stroke-width:0.265;stroke-miterlimit:4;stroke-dasharray:none"
       id="path1814"
       sodipodi:nodetypes="scscscscsssscscscsscssscssscccccscscscsss" />
    <g
       id="g1820"
       transform="translate(-8.4704516,8.6474855)">
      <path
         style="fill:none;stroke:#666666;stroke-width:0.264583;stroke-linecap:butt;stroke-linejoin:miter;stroke-miterlimit:4;stroke-dasharray:none;stroke-opacity:1"
         d="M 1.33228,5.426872 V 2.873909"
         id="path1816" />
      <path
         id="path1818"
         style="fill:#666666;fill-opacity:1;stroke:none;stroke-width:0.284463;stroke-linecap:square;stroke-linejoin:round;stroke-miterlimit:4;stroke-dasharray:none;stroke-dashoffset:16.9701;stroke-opacity:1;paint-order:markers fill stroke"
         d="M 2.27478,5.262608 L 1.332289,6.677335 l -0.9425,-1.414727 z"
         sodipodi:nodetypes="cccc" />
    </g>
    <path
       d="m 6.0381177,13.621286 c -0.12988,0 -0.232142,0.05524 -0.306785,0.165709 c -0.07315,0.110472 -0.109726,0.264238 -0.109726,0.461297 c 0,0.194073 0.03658,0.347093 0.109726,0.459058 c 0.07464,0.110472 0.176904,0.165709 0.306784,0.165709 c 0.126895,0 0.226917,-0.05524 0.300068,-0.165709 c 0.07464,-0.111965 0.111964,-0.264985 0.111964,-0.459058 c 0,-0.195566 -0.03732,-0.348585 -0.111964,-0.459058 c -0.07315,-0.111965 -0.173173,-0.167948 -0.300067,-0.167948 z m 0,-0.284392 c 0.235873,0 0.423229,0.08211 0.562066,0.246324 c 0.138837,0.164216 0.208255,0.385907 0.208255,0.665074 c 0,0.279167 -0.07016,0.500858 -0.210495,0.665074 c -0.138837,0.162723 -0.325445,0.244085 -0.559826,0.244085 c -0.238859,0 -0.427708,-0.08136 -0.566545,-0.244085 C 5.3327357,14.74915 5.2633177,14.527459 5.2633177,14.248292 c 0,-0.28066 0.06942,-0.502351 0.208254,-0.665074 c 0.140331,-0.164216 0.329179,-0.246324 0.566546,-0.246324 z m -2.111479,-1.363738 c -0.128388,0 -0.229903,0.05598 -0.304546,0.167948 c -0.07315,0.110473 -0.109726,0.262746 -0.109726,0.456819 c 0,0.197059 0.03657,0.350825 0.109726,0.461297 c 0.07315,0.110473 0.174667,0.165709 0.304546,0.165709 c 0.12988,0 0.231394,-0.05524 0.304545,-0.165709 c 0.07464,-0.110472 0.111965,-0.264238 0.111965,-0.461297 c 0,-0.19258 -0.03732,-0.344853 -0.111965,-0.456819 c -0.07464,-0.111965 -0.176158,-0.167948 -0.304545,-0.167948 z m 1.587321,-0.284392 h 0.358289 l -1.421156,3.468687 h -0.358289 z m -1.587321,0 c 0.235873,0 0.423975,0.08211 0.564304,0.246324 c 0.14033,0.162723 0.210495,0.383668 0.210495,0.662835 c 0,0.282153 -0.07017,0.50459 -0.210495,0.667313 c -0.138837,0.162723 -0.326938,0.244085 -0.564304,0.244085 c -0.237368,0 -0.425469,-0.08136 -0.564305,-0.244085 c -0.137345,-0.164215 -0.206017,-0.386653 -0.206017,-0.667313 c 0,-0.277674 0.06942,-0.498619 0.208255,-0.662835 c 0.138838,-0.164216 0.326193,-0.246324 0.562067,-0.246324 z"
       style="font-size:4.5861px;line-height:1.25;font-family:sans-serif;letter-spacing:0px;word-spacing:0px;opacity:0.0967737;stroke-width:0.265;stroke-miterlimit:4;stroke-dasharray:none"
       id="path1834"
       sodipodi:nodetypes="scscscscsssscscscsscssscssscccccscscscsss" />
    <g
       id="g1840"
       transform="translate(0.39997845,8.6474855)">
      <path
         style="fill:none;stroke:#666666;stroke-width:0.264583;stroke-linecap:butt;stroke-linejoin:miter;stroke-miterlimit:4;stroke-dasharray:none;stroke-opacity:1"
         d="M 1.33228,5.426872 V 2.873909"
         id="path1836" />
      <path
         id="path1838"
         style="fill:#666666;fill-opacity:1;stroke:none;stroke-width:0.284463;stroke-linecap:square;stroke-linejoin:round;stroke-miterlimit:4;stroke-dasharray:none;stroke-dashoffset:16.9701;stroke-opacity:1;paint-order:markers fill stroke"
         d="M 2.27478,5.262608 L 1.332289,6.677335 l -0.9425,-1.414727 z"
         sodipodi:nodetypes="cccc" />
    </g>
    <path
       d="m 14.386011,13.621286 c -0.12988,0 -0.232142,0.05524 -0.306785,0.165709 c -0.07315,0.110472 -0.109726,0.264238 -0.109726,0.461297 c 0,0.194073 0.03658,0.347093 0.109726,0.459058 c 0.07464,0.110472 0.176904,0.165709 0.306784,0.165709 c 0.126895,0 0.226917,-0.05524 0.300068,-0.165709 c 0.07464,-0.111965 0.111964,-0.264985 0.111964,-0.459058 c 0,-0.195566 -0.03732,-0.348585 -0.111964,-0.459058 c -0.07315,-0.111965 -0.173173,-0.167948 -0.300067,-0.167948 z m 0,-0.284392 c 0.235873,0 0.423229,0.08211 0.562066,0.246324 c 0.138837,0.164216 0.208255,0.385907 0.208255,0.665074 c 0,0.279167 -0.07016,0.500858 -0.210495,0.665074 c -0.138837,0.162723 -0.325445,0.244085 -0.559826,0.244085 c -0.238859,0 -0.427708,-0.08136 -0.566545,-0.244085 C 13.680629,14.74915 13.611211,14.527459 13.611211,14.248292 c 0,-0.28066 0.06942,-0.502351 0.208254,-0.665074 c 0.140331,-0.164216 0.329179,-0.246324 0.566546,-0.246324 z m -2.111479,-1.363738 c -0.128388,0 -0.229903,0.05598 -0.304546,0.167948 c -0.07315,0.110473 -0.109726,0.262746 -0.109726,0.456819 c 0,0.197059 0.03657,0.350825 0.109726,0.461297 c 0.07315,0.110473 0.174667,0.165709 0.304546,0.165709 c 0.12988,0 0.231394,-0.05524 0.304545,-0.165709 c 0.07464,-0.110472 0.111965,-0.264238 0.111965,-0.461297 c 0,-0.19258 -0.03732,-0.344853 -0.111965,-0.456819 c -0.07464,-0.111965 -0.176158,-0.167948 -0.304545,-0.167948 z m 1.587321,-0.284392 h 0.358289 l -1.421156,3.468687 h -0.358289 z m -1.587321,0 c 0.235873,0 0.423975,0.08211 0.564304,0.246324 c 0.14033,0.162723 0.210495,0.383668 0.210495,0.662835 c 0,0.282153 -0.07017,0.50459 -0.210495,0.667313 c -0.138837,0.162723 -0.326938,0.244085 -0.564304,0.244085 c -0.237368,0 -0.425469,-0.08136 -0.564305,-0.244085 C 11.572882,13.101021 11.50421,12.878583 11.50421,12.597923 c 0,-0.277674 0.06942,-0.498619 0.208255,-0.662835 c 0.138838,-0.164216 0.326193,-0.246324 0.562067,-0.246324 z"
       style="font-size:4.5861px;line-height:1.25;font-family:sans-serif;letter-spacing:0px;word-spacing:0px;opacity:1;stroke-width:0.265;stroke-miterlimit:4;stroke-dasharray:none"
       id="path1848"
       sodipodi:nodetypes="scscscscsssscscscsscssscssscccccscscscsss" />
    <g
       id="g1854"
       transform="translate(8.7478719,8.6474855)">
      <path
         style="fill:none;stroke:#666666;stroke-width:0.264583;stroke-linecap:butt;stroke-linejoin:miter;stroke-miterlimit:4;stroke-dasharray:none;stroke-opacity:1"
         d="M 1.33228,5.426872 V 2.873909"
         id="path1850" />
      <path
         id="path1852"
         style="fill:#666666;fill-opacity:1;stroke:none;stroke-width:0.284463;stroke-linecap:square;stroke-linejoin:round;stroke-miterlimit:4;stroke-dasharray:none;stroke-dashoffset:16.9701;stroke-opacity:1;paint-order:markers fill stroke"
         d="M 2.27478,5.262608 L 1.332289,6.677335 l -0.9425,-1.414727 z"
         sodipodi:nodetypes="cccc" />
    </g>
    <text
       xml:space="preserve"
       style="font-size:2.74904px;line-height:0.9;font-family:sans-serif;letter-spacing:0px;word-spacing:0px;stroke:#000000;stroke-width:0.0835711;stroke-miterlimit:4;stroke-dasharray:none"
       x="-4.5535183"
       y="13.892611"
       id="text1878"
       transform="scale(1.0539371,0.94882322)"><tspan
         sodipodi:role="line"
         x="-4.5535183"
         y="13.892611"
         style="font-style:normal;font-variant:normal;font-weight:normal;font-stretch:normal;font-size:2.74904px;font-family:sans-serif;-inkscape-font-specification:'sans-serif, Normal';font-variant-ligatures:normal;font-variant-caps:normal;font-variant-numeric:normal;font-variant-east-asian:normal;stroke:#000000;stroke-width:0.0835711;stroke-miterlimit:4;stroke-dasharray:none"
         id="tspan1876">1</tspan><tspan
         sodipodi:role="line"
         x="-4.5535183"
         y="16.366747"
         style="font-style:normal;font-variant:normal;font-weight:normal;font-stretch:normal;font-size:2.74904px;font-family:sans-serif;-inkscape-font-specification:'sans-serif, Normal';font-variant-ligatures:normal;font-variant-caps:normal;font-variant-numeric:normal;font-variant-east-asian:normal;stroke:#000000;stroke-width:0.0835711;stroke-miterlimit:4;stroke-dasharray:none"
         id="tspan1882">9</tspan></text>
  </g>
</svg>
