<?xml version="1.0" encoding="UTF-8" standalone="no"?>
<svg
   xmlns:dc="http://purl.org/dc/elements/1.1/"
   xmlns:cc="http://creativecommons.org/ns#"
   xmlns:rdf="http://www.w3.org/1999/02/22-rdf-syntax-ns#"
   xmlns:svg="http://www.w3.org/2000/svg"
   xmlns="http://www.w3.org/2000/svg"
   xmlns:sodipodi="http://sodipodi.sourceforge.net/DTD/sodipodi-0.dtd"
   xmlns:inkscape="http://www.inkscape.org/namespaces/inkscape"
   width="6.018671mm"
   height="4.3695226mm"
   viewBox="0 0 6.018671 4.3695226"
   version="1.1"
   id="svg8"
   inkscape:version="1.0.2 (394de47547, 2021-03-26)"
   sodipodi:docname="sorting-icon.svg">
  <defs
     id="defs2" />
  <sodipodi:namedview
     id="base"
     pagecolor="#ffffff"
     bordercolor="#666666"
     borderopacity="1.0"
     inkscape:pageopacity="0.0"
     inkscape:pageshadow="2"
     inkscape:zoom="15.495624"
     inkscape:cx="28.635533"
     inkscape:cy="0.16678378"
     inkscape:document-units="mm"
     inkscape:current-layer="layer1"
     inkscape:document-rotation="0"
     showgrid="false"
     inkscape:window-width="1920"
     inkscape:window-height="1016"
     inkscape:window-x="0"
     inkscape:window-y="27"
     inkscape:window-maximized="1"
     showguides="true"
     inkscape:guide-bbox="true" />
  <metadata
     id="metadata5">
    <rdf:RDF>
      <cc:Work
         rdf:about="">
        <dc:format>image/svg+xml</dc:format>
        <dc:type
           rdf:resource="http://purl.org/dc/dcmitype/StillImage" />
        <dc:title></dc:title>
      </cc:Work>
    </rdf:RDF>
  </metadata>
  <g
     inkscape:label="Layer 1"
     inkscape:groupmode="layer"
     id="layer1"
     transform="translate(-0.29795612,-1.1225305)">
    <path
       d="m 5.5463064,3.50547 c -0.12988,0 -0.232142,0.05524 -0.306785,0.165709 c -0.07315,0.110472 -0.109726,0.264238 -0.109726,0.461297 c 0,0.194073 0.03658,0.347093 0.109726,0.459058 c 0.07464,0.110472 0.176904,0.165709 0.306784,0.165709 c 0.126895,0 0.226917,-0.05524 0.300068,-0.165709 c 0.07464,-0.111965 0.111964,-0.264985 0.111964,-0.459058 c 0,-0.195566 -0.03732,-0.348585 -0.111964,-0.459058 C 5.7732234,3.561453 5.6732004,3.50547 5.5463064,3.50547 Z m 0,-0.284392 c 0.235873,0 0.423229,0.08211 0.562066,0.246324 c 0.138837,0.164216 0.208255,0.385907 0.208255,0.665074 c 0,0.279167 -0.07016,0.500858 -0.210495,0.665074 c -0.138837,0.162723 -0.325445,0.244085 -0.559826,0.244085 c -0.238859,0 -0.427708,-0.08136 -0.566545,-0.244085 C 4.8409244,4.633334 4.7715064,4.411643 4.7715064,4.132476 c 0,-0.28066 0.06942,-0.502351 0.208254,-0.665074 C 5.1200914,3.303186 5.3089394,3.221078 5.5463064,3.221078 Z M 3.4348274,1.85734 c -0.128388,0 -0.229903,0.05598 -0.304546,0.167948 c -0.07315,0.110473 -0.109726,0.262746 -0.109726,0.456819 c 0,0.197059 0.03657,0.350825 0.109726,0.461297 c 0.07315,0.110473 0.174667,0.165709 0.304546,0.165709 c 0.12988,0 0.231394,-0.05524 0.304545,-0.165709 c 0.07464,-0.110472 0.111965,-0.264238 0.111965,-0.461297 c 0,-0.19258 -0.03732,-0.344853 -0.111965,-0.456819 C 3.6647324,1.913323 3.5632144,1.85734 3.4348274,1.85734 Z m 1.587321,-0.284392 h 0.358289 l -1.421156,3.468687 h -0.358289 z m -1.587321,0 c 0.235873,0 0.423975,0.08211 0.564304,0.246324 c 0.14033,0.162723 0.210495,0.383668 0.210495,0.662835 c 0,0.282153 -0.07017,0.50459 -0.210495,0.667313 c -0.138837,0.162723 -0.326938,0.244085 -0.564304,0.244085 c -0.237368,0 -0.425469,-0.08136 -0.564305,-0.244085 C 2.7331774,2.985205 2.6645054,2.762767 2.6645054,2.482107 c 0,-0.277674 0.06942,-0.498619 0.208255,-0.662835 c 0.138838,-0.164216 0.326193,-0.246324 0.562067,-0.246324 z"
       style="font-size:4.5861px;line-height:1.25;font-family:sans-serif;letter-spacing:0px;word-spacing:0px;stroke-width:0.265;stroke-miterlimit:4;stroke-dasharray:none"
       id="path1834"
       sodipodi:nodetypes="scscscscsssscscscsscssscssscccccscscscsss"
       class="percent" />
    <g
       id="g1840"
       transform="translate(-0.09183288,-1.4683305)"
       class="arrow">
      <path
         style="fill:none;stroke:#666666;stroke-width:0.264583;stroke-linecap:butt;stroke-linejoin:miter;stroke-miterlimit:4;stroke-dasharray:none;stroke-opacity:1"
         d="M 1.33228,5.426872 V 2.873909"
         id="path1836" />
      <path
         id="path1838"
         style="fill:#666666;fill-opacity:1;stroke:none;stroke-width:0.284463;stroke-linecap:square;stroke-linejoin:round;stroke-miterlimit:4;stroke-dasharray:none;stroke-dashoffset:16.9701;stroke-opacity:1;paint-order:markers fill stroke"
         d="M 2.27478,5.262608 L 1.332289,6.677335 l -0.9425,-1.414727 z"
         sodipodi:nodetypes="cccc" />
    </g>
    <g
       id="g2070"
       transform="translate(-6.7664105,0.67141558)"
       class="numerical">
      <path
         id="path2065"
         style="color:#000000;font-style:normal;font-variant:normal;font-weight:normal;font-stretch:normal;font-size:2.74904px;line-height:0.9;font-family:sans-serif;-inkscape-font-specification:'sans-serif, Normal';font-variant-ligatures:normal;font-variant-position:normal;font-variant-caps:normal;font-variant-numeric:normal;font-variant-alternates:normal;font-variant-east-asian:normal;font-feature-settings:normal;font-variation-settings:normal;text-indent:0;text-align:start;text-decoration:none;text-decoration-line:none;text-decoration-style:solid;text-decoration-color:#000000;letter-spacing:0px;word-spacing:0px;text-transform:none;writing-mode:lr-tb;direction:ltr;text-orientation:mixed;dominant-baseline:auto;baseline-shift:baseline;text-anchor:start;white-space:normal;shape-padding:0;shape-margin:0;inline-size:0;clip-rule:nonzero;display:inline;overflow:visible;visibility:visible;isolation:auto;mix-blend-mode:normal;color-interpolation:sRGB;color-interpolation-filters:linearRGB;solid-color:#000000;solid-opacity:1;vector-effect:none;fill:#000000;fill-opacity:1;fill-rule:nonzero;stroke:none;stroke-width:3.77953;stroke-linecap:butt;stroke-linejoin:miter;stroke-miterlimit:4;stroke-dasharray:none;stroke-dashoffset:0;stroke-opacity:1;color-rendering:auto;image-rendering:auto;shape-rendering:auto;text-rendering:auto;enable-background:accumulate;stop-color:#000000"
         d="m 41.068359,-2.5371094 l -2.052734,0.3769532 v 1.20312495 L 40.935547,-1.296875 v 5.1308594 h -1.763672 v 0.1542968 v 0.9824219 h 4.916016 V 3.8339844 h -1.763672 v -6.3710938 z"
         transform="matrix(0.26458333,0,0,0.26458333,0.29795612,1.1225305)" />
      <path
         id="path2045"
         style="color:#000000;font-style:normal;font-variant:normal;font-weight:normal;font-stretch:normal;font-size:2.74904px;line-height:0.9;font-family:sans-serif;-inkscape-font-specification:'sans-serif, Normal';font-variant-ligatures:normal;font-variant-position:normal;font-variant-caps:normal;font-variant-numeric:normal;font-variant-alternates:normal;font-variant-east-asian:normal;font-feature-settings:normal;font-variation-settings:normal;text-indent:0;text-align:start;text-decoration:none;text-decoration-line:none;text-decoration-style:solid;text-decoration-color:#000000;letter-spacing:0px;word-spacing:0px;text-transform:none;writing-mode:lr-tb;direction:ltr;text-orientation:mixed;dominant-baseline:auto;baseline-shift:baseline;text-anchor:start;white-space:normal;shape-padding:0;shape-margin:0;inline-size:0;clip-rule:nonzero;display:inline;overflow:visible;visibility:visible;isolation:auto;mix-blend-mode:normal;color-interpolation:sRGB;color-interpolation-filters:linearRGB;solid-color:#000000;solid-opacity:1;vector-effect:none;fill:#000000;fill-opacity:1;fill-rule:nonzero;stroke:none;stroke-width:3.77953;stroke-linecap:butt;stroke-linejoin:miter;stroke-miterlimit:4;stroke-dasharray:none;stroke-dashoffset:0;stroke-opacity:1;color-rendering:auto;image-rendering:auto;shape-rendering:auto;text-rendering:auto;enable-background:accumulate;stop-color:#000000"
         d="m 41.326172,6.2109375 c -0.83475,0 -1.526103,0.2314533 -2.042969,0.7070313 c -0.516722,0.4754527 -0.77539,1.1179565 -0.775391,1.890625 c 0,0.7864855 0.247678,1.4367322 0.744141,1.9042972 c 0.499862,0.463753 1.174913,0.693359 2.001953,0.693359 c 0.405162,0 0.781689,-0.0784 1.121094,-0.236328 c 0.164901,-0.07673 0.276016,-0.22204 0.414062,-0.332031 c -0.09687,0.561573 -0.197841,1.11853 -0.458984,1.417968 c -0.341669,0.392563 -0.830549,0.589844 -1.511719,0.589844 c -0.255345,0 -0.51551,-0.02921 -0.783203,-0.08789 c -0.268138,-0.0588 -0.534674,-0.146 -0.796875,-0.257813 l -0.222656,-0.08984 v 1.240235 l 0.111328,0.0293 c 0.305688,0.09828 0.600631,0.173125 0.886719,0.222656 c 0.286526,0.04961 0.575202,0.07422 0.855469,0.07422 c 1.043954,0 1.900793,-0.357367 2.52539,-1.064453 c 0.627806,-0.709858 0.9375,-1.657719 0.9375,-2.818359 c 0,-1.2342316 -0.24965,-2.1913325 -0.767578,-2.8652344 C 43.050464,6.5514582 42.28582,6.2109375 41.326172,6.2109375 Z m 0,1.0839844 c 0.452028,0 0.7844,0.1298276 1.035156,0.3984375 c 0.25372,0.2655345 0.382813,0.6276262 0.382813,1.1152344 c 0,0.4909965 -0.129271,0.8557637 -0.382813,1.1210937 c -0.250545,0.2655455 -0.582781,0.4003905 -1.035156,0.4003905 c -0.452379,2e-6 -0.784776,-0.134263 -1.039063,-0.4003905 C 40.036905,9.6645347 39.910156,9.2999516 39.910156,8.8085938 c 0,-0.4879715 0.12656,-0.8498749 0.376953,-1.1152344 C 40.541585,7.4241701 40.87414,7.2949241 41.326172,7.2949219 Z"
         transform="matrix(0.26458333,0,0,0.26458333,0.29795612,1.1225305)" />
    </g>
    <g
       id="g2119"
       transform="translate(-3.9213646,3.6236912)"
       class="alphabetical">
      <path
         id="path2099"
         style="color:#000000;font-style:normal;font-variant:normal;font-weight:normal;font-stretch:normal;font-size:2.74904px;line-height:0.9;font-family:sans-serif;-inkscape-font-specification:'sans-serif, Normal';font-variant-ligatures:normal;font-variant-position:normal;font-variant-caps:normal;font-variant-numeric:normal;font-variant-alternates:normal;font-variant-east-asian:normal;font-feature-settings:normal;font-variation-settings:normal;text-indent:0;text-align:start;text-decoration:none;text-decoration-line:none;text-decoration-style:solid;text-decoration-color:#000000;letter-spacing:0px;word-spacing:0px;text-transform:none;writing-mode:lr-tb;direction:ltr;text-orientation:mixed;dominant-baseline:auto;baseline-shift:baseline;text-anchor:start;white-space:normal;shape-padding:0;shape-margin:0;inline-size:0;clip-rule:nonzero;display:inline;overflow:visible;visibility:visible;isolation:auto;mix-blend-mode:normal;color-interpolation:sRGB;color-interpolation-filters:linearRGB;solid-color:#000000;solid-opacity:1;vector-effect:none;fill:#000000;fill-opacity:1;fill-rule:nonzero;stroke:none;stroke-width:3.77953;stroke-linecap:butt;stroke-linejoin:miter;stroke-miterlimit:4;stroke-dasharray:none;stroke-dashoffset:0;stroke-opacity:1;color-rendering:auto;image-rendering:auto;shape-rendering:auto;text-rendering:auto;enable-background:accumulate;stop-color:#000000"
         d="m 29.951172,-13.625 l -0.03711,0.0957 l -3.144531,7.4043 h 1.484375 l 0.730469,-1.8457031 h 3.380859 L 33.095703,-6.125 h 1.46875 l -3.181641,-7.5 z m 0.716797,1.535156 l 1.232422,2.9980471 h -2.464844 z"
         transform="matrix(0.26458333,0,0,0.26458333,0.29795612,1.1225305)" />
      <path
         id="path2114"
         style="color:#000000;font-style:normal;font-variant:normal;font-weight:normal;font-stretch:normal;font-size:2.74904px;line-height:0.9;font-family:sans-serif;-inkscape-font-specification:'sans-serif, Normal';font-variant-ligatures:normal;font-variant-position:normal;font-variant-caps:normal;font-variant-numeric:normal;font-variant-alternates:normal;font-variant-east-asian:normal;font-feature-settings:normal;font-variation-settings:normal;text-indent:0;text-align:start;text-decoration:none;text-decoration-line:none;text-decoration-style:solid;text-decoration-color:#000000;letter-spacing:0px;word-spacing:0px;text-transform:none;writing-mode:lr-tb;direction:ltr;text-orientation:mixed;dominant-baseline:auto;baseline-shift:baseline;text-anchor:start;white-space:normal;shape-padding:0;shape-margin:0;inline-size:0;clip-rule:nonzero;display:inline;overflow:visible;visibility:visible;isolation:auto;mix-blend-mode:normal;color-interpolation:sRGB;color-interpolation-filters:linearRGB;solid-color:#000000;solid-opacity:1;vector-effect:none;fill:#000000;fill-opacity:1;fill-rule:nonzero;stroke:none;stroke-width:3.77953;stroke-linecap:butt;stroke-linejoin:miter;stroke-miterlimit:4;stroke-dasharray:none;stroke-dashoffset:0;stroke-opacity:1;color-rendering:auto;image-rendering:auto;shape-rendering:auto;text-rendering:auto;enable-background:accumulate;stop-color:#000000"
         d="m 27.382812,-4.7519531 v 0.1542969 v 0.9746093 h 4.732422 L 27.257812,1.7890625 V 2.7480469 H 34.09375 V 1.6113281 h -4.976562 l 4.849609,-5.4042969 v -0.9589843 z"
         transform="matrix(0.26458333,0,0,0.26458333,0.29795612,1.1225305)" />
    </g>
  </g>
</svg>
